<mxfile host="app.diagrams.net" modified="2024-06-26T06:39:42.200Z" agent="Mozilla/5.0 (Windows NT 10.0; Win64; x64) AppleWebKit/537.36 (KHTML, like Gecko) Chrome/125.0.0.0 Safari/537.36" etag="l4R4p0JXvrAI_n24xo8y" version="24.6.3" type="github">
  <diagram name="第 1 页" id="gn4Y0xX3draMKMxX65IL">
    <mxGraphModel dx="1050" dy="1739" grid="1" gridSize="10" guides="1" tooltips="1" connect="1" arrows="1" fold="1" page="1" pageScale="1" pageWidth="827" pageHeight="1169" math="0" shadow="0">
      <root>
        <mxCell id="0" />
        <mxCell id="1" parent="0" />
        <mxCell id="RIe04A_sjF8tFngzXczi-1" value="" style="rounded=0;whiteSpace=wrap;html=1;shadow=0;strokeColor=#66B2FF;strokeWidth=1;fillColor=#FFB366;" vertex="1" parent="1">
          <mxGeometry x="370" y="290" width="830" height="64" as="geometry" />
        </mxCell>
        <mxCell id="RIe04A_sjF8tFngzXczi-2" value="" style="rounded=0;whiteSpace=wrap;html=1;shadow=0;strokeWidth=1;strokeColor=#66B2FF;" vertex="1" parent="1">
          <mxGeometry x="369" y="-6" width="831" height="289" as="geometry" />
        </mxCell>
        <mxCell id="RIe04A_sjF8tFngzXczi-3" value="" style="rounded=0;whiteSpace=wrap;html=1;shadow=0;strokeColor=#66B2FF;strokeWidth=1;fillColor=#FFB366;" vertex="1" parent="1">
          <mxGeometry x="370" y="240" width="830" height="43" as="geometry" />
        </mxCell>
        <mxCell id="RIe04A_sjF8tFngzXczi-4" style="edgeStyle=orthogonalEdgeStyle;rounded=0;orthogonalLoop=1;jettySize=auto;html=1;exitX=1;exitY=0.5;exitDx=0;exitDy=0;entryX=0;entryY=0.5;entryDx=0;entryDy=0;endArrow=classic;endFill=1;strokeColor=#333333;strokeWidth=2;dashed=1;" edge="1" parent="1" source="RIe04A_sjF8tFngzXczi-5" target="RIe04A_sjF8tFngzXczi-7">
          <mxGeometry relative="1" as="geometry" />
        </mxCell>
        <mxCell id="RIe04A_sjF8tFngzXczi-5" value="" style="rounded=1;whiteSpace=wrap;html=1;shadow=0;strokeWidth=1;fillColor=#FFB366;strokeColor=none;" vertex="1" parent="1">
          <mxGeometry x="45" y="390" width="120" height="60" as="geometry" />
        </mxCell>
        <mxCell id="RIe04A_sjF8tFngzXczi-6" style="edgeStyle=orthogonalEdgeStyle;rounded=0;orthogonalLoop=1;jettySize=auto;html=1;exitX=1;exitY=0.5;exitDx=0;exitDy=0;dashed=1;endArrow=classic;endFill=1;strokeColor=#333333;strokeWidth=2;" edge="1" parent="1" source="RIe04A_sjF8tFngzXczi-7" target="RIe04A_sjF8tFngzXczi-8">
          <mxGeometry relative="1" as="geometry" />
        </mxCell>
        <mxCell id="RIe04A_sjF8tFngzXczi-7" value="" style="rounded=1;whiteSpace=wrap;html=1;shadow=0;strokeWidth=1;fillColor=#FFB366;strokeColor=none;" vertex="1" parent="1">
          <mxGeometry x="217" y="124" width="120" height="60" as="geometry" />
        </mxCell>
        <mxCell id="RIe04A_sjF8tFngzXczi-8" value="" style="rounded=0;whiteSpace=wrap;html=1;shadow=0;strokeColor=#66B2FF;strokeWidth=1;fillColor=#FFB366;" vertex="1" parent="1">
          <mxGeometry x="369" y="13" width="830" height="200" as="geometry" />
        </mxCell>
        <mxCell id="RIe04A_sjF8tFngzXczi-9" style="edgeStyle=orthogonalEdgeStyle;rounded=0;orthogonalLoop=1;jettySize=auto;html=1;exitX=0.5;exitY=1;exitDx=0;exitDy=0;entryX=0.5;entryY=0;entryDx=0;entryDy=0;endArrow=classic;endFill=1;strokeColor=#333333;strokeWidth=1;" edge="1" parent="1" source="RIe04A_sjF8tFngzXczi-10" target="RIe04A_sjF8tFngzXczi-78">
          <mxGeometry relative="1" as="geometry" />
        </mxCell>
        <mxCell id="RIe04A_sjF8tFngzXczi-10" value="" style="rounded=0;whiteSpace=wrap;html=1;strokeWidth=1;strokeColor=none;" vertex="1" parent="1">
          <mxGeometry x="1099" y="31" width="90" height="90" as="geometry" />
        </mxCell>
        <mxCell id="RIe04A_sjF8tFngzXczi-11" style="edgeStyle=orthogonalEdgeStyle;rounded=0;orthogonalLoop=1;jettySize=auto;html=1;exitX=1;exitY=0.5;exitDx=0;exitDy=0;entryX=0;entryY=0.25;entryDx=0;entryDy=0;endArrow=classic;endFill=1;strokeColor=#333333;strokeWidth=1;" edge="1" parent="1" source="RIe04A_sjF8tFngzXczi-12" target="RIe04A_sjF8tFngzXczi-91">
          <mxGeometry relative="1" as="geometry" />
        </mxCell>
        <mxCell id="RIe04A_sjF8tFngzXczi-12" value="" style="whiteSpace=wrap;html=1;aspect=fixed;strokeWidth=1;strokeColor=none;" vertex="1" parent="1">
          <mxGeometry x="637" y="65" width="110" height="110" as="geometry" />
        </mxCell>
        <mxCell id="RIe04A_sjF8tFngzXczi-13" style="edgeStyle=orthogonalEdgeStyle;rounded=0;orthogonalLoop=1;jettySize=auto;html=1;exitX=1;exitY=0.5;exitDx=0;exitDy=0;entryX=0;entryY=0.5;entryDx=0;entryDy=0;endArrow=classic;endFill=1;strokeColor=#333333;strokeWidth=1;" edge="1" parent="1" source="RIe04A_sjF8tFngzXczi-15" target="RIe04A_sjF8tFngzXczi-67">
          <mxGeometry relative="1" as="geometry" />
        </mxCell>
        <mxCell id="RIe04A_sjF8tFngzXczi-14" style="edgeStyle=orthogonalEdgeStyle;rounded=0;orthogonalLoop=1;jettySize=auto;html=1;exitX=1;exitY=0.5;exitDx=0;exitDy=0;entryX=0;entryY=0.5;entryDx=0;entryDy=0;endArrow=classic;endFill=1;strokeColor=#333333;strokeWidth=1;" edge="1" parent="1">
          <mxGeometry relative="1" as="geometry">
            <mxPoint x="602" y="173.5" as="sourcePoint" />
            <mxPoint x="640" y="120" as="targetPoint" />
            <Array as="points">
              <mxPoint x="623" y="174" />
              <mxPoint x="623" y="120" />
            </Array>
          </mxGeometry>
        </mxCell>
        <mxCell id="RIe04A_sjF8tFngzXczi-15" value="" style="rounded=0;whiteSpace=wrap;html=1;strokeWidth=1;strokeColor=none;" vertex="1" parent="1">
          <mxGeometry x="414" y="143.5" width="185" height="60" as="geometry" />
        </mxCell>
        <mxCell id="RIe04A_sjF8tFngzXczi-16" style="edgeStyle=orthogonalEdgeStyle;rounded=0;orthogonalLoop=1;jettySize=auto;html=1;exitX=0.5;exitY=1;exitDx=0;exitDy=0;entryX=0.5;entryY=0;entryDx=0;entryDy=0;endArrow=classic;endFill=1;strokeColor=#333333;strokeWidth=1;" edge="1" parent="1" source="RIe04A_sjF8tFngzXczi-17" target="RIe04A_sjF8tFngzXczi-15">
          <mxGeometry relative="1" as="geometry" />
        </mxCell>
        <mxCell id="RIe04A_sjF8tFngzXczi-17" value="" style="rounded=0;whiteSpace=wrap;html=1;strokeWidth=1;strokeColor=none;" vertex="1" parent="1">
          <mxGeometry x="414" y="31" width="185" height="90" as="geometry" />
        </mxCell>
        <mxCell id="RIe04A_sjF8tFngzXczi-18" value="" style="rounded=1;whiteSpace=wrap;html=1;strokeWidth=1;align=left;strokeColor=#66B2FF;" vertex="1" parent="1">
          <mxGeometry x="370" y="440" width="750" height="90" as="geometry" />
        </mxCell>
        <mxCell id="RIe04A_sjF8tFngzXczi-19" style="edgeStyle=orthogonalEdgeStyle;rounded=0;orthogonalLoop=1;jettySize=auto;html=1;exitX=0;exitY=0.5;exitDx=0;exitDy=0;dashed=1;endArrow=classic;endFill=1;strokeColor=#333333;strokeWidth=2;entryX=0;entryY=0.5;entryDx=0;entryDy=0;" edge="1" parent="1" target="RIe04A_sjF8tFngzXczi-21">
          <mxGeometry relative="1" as="geometry">
            <mxPoint x="185" y="460" as="targetPoint" />
            <mxPoint x="153" y="610" as="sourcePoint" />
          </mxGeometry>
        </mxCell>
        <mxCell id="RIe04A_sjF8tFngzXczi-20" style="edgeStyle=orthogonalEdgeStyle;rounded=0;orthogonalLoop=1;jettySize=auto;html=1;exitX=1;exitY=0.5;exitDx=0;exitDy=0;dashed=1;endArrow=classic;endFill=1;strokeColor=#333333;strokeWidth=2;" edge="1" parent="1" source="RIe04A_sjF8tFngzXczi-21" target="RIe04A_sjF8tFngzXczi-48">
          <mxGeometry relative="1" as="geometry" />
        </mxCell>
        <mxCell id="RIe04A_sjF8tFngzXczi-21" value="&lt;div style=&quot;font-size: 11px&quot;&gt;&lt;font style=&quot;font-size: 11px&quot;&gt;数据网关&lt;br&gt;&lt;/font&gt;&lt;/div&gt;&lt;div style=&quot;font-size: 11px&quot;&gt;&lt;font style=&quot;font-size: 11px&quot;&gt;ODS&lt;/font&gt;&lt;/div&gt;" style="rounded=1;whiteSpace=wrap;html=1;strokeWidth=1;strokeColor=none;fillColor=#FFB366;" vertex="1" parent="1">
          <mxGeometry x="222" y="440" width="110" height="40" as="geometry" />
        </mxCell>
        <mxCell id="RIe04A_sjF8tFngzXczi-22" value="" style="endArrow=none;html=1;strokeColor=#66B2FF;" edge="1" parent="1">
          <mxGeometry width="50" height="50" relative="1" as="geometry">
            <mxPoint x="200" y="640" as="sourcePoint" />
            <mxPoint x="200" y="-40" as="targetPoint" />
          </mxGeometry>
        </mxCell>
        <mxCell id="RIe04A_sjF8tFngzXczi-23" value="" style="endArrow=none;html=1;strokeColor=#66B2FF;" edge="1" parent="1">
          <mxGeometry width="50" height="50" relative="1" as="geometry">
            <mxPoint x="360" y="640" as="sourcePoint" />
            <mxPoint x="360" y="-40" as="targetPoint" />
          </mxGeometry>
        </mxCell>
        <mxCell id="RIe04A_sjF8tFngzXczi-24" value="" style="endArrow=none;html=1;strokeColor=#66B2FF;" edge="1" parent="1">
          <mxGeometry width="50" height="50" relative="1" as="geometry">
            <mxPoint x="1320" y="646.25" as="sourcePoint" />
            <mxPoint x="1320" y="-40" as="targetPoint" />
          </mxGeometry>
        </mxCell>
        <mxCell id="RIe04A_sjF8tFngzXczi-25" value="" style="endArrow=none;html=1;strokeColor=#66B2FF;" edge="1" parent="1">
          <mxGeometry width="50" height="50" relative="1" as="geometry">
            <mxPoint x="40" y="200" as="sourcePoint" />
            <mxPoint x="200" y="200" as="targetPoint" />
          </mxGeometry>
        </mxCell>
        <mxCell id="RIe04A_sjF8tFngzXczi-26" value="" style="endArrow=none;html=1;strokeColor=#66B2FF;" edge="1" parent="1">
          <mxGeometry width="50" height="50" relative="1" as="geometry">
            <mxPoint x="40" y="360" as="sourcePoint" />
            <mxPoint x="200" y="360" as="targetPoint" />
          </mxGeometry>
        </mxCell>
        <mxCell id="RIe04A_sjF8tFngzXczi-27" value="" style="endArrow=none;html=1;strokeColor=#66B2FF;" edge="1" parent="1">
          <mxGeometry width="50" height="50" relative="1" as="geometry">
            <mxPoint x="40" y="480" as="sourcePoint" />
            <mxPoint x="200" y="480" as="targetPoint" />
          </mxGeometry>
        </mxCell>
        <mxCell id="RIe04A_sjF8tFngzXczi-28" value="" style="endArrow=none;html=1;strokeColor=#66B2FF;" edge="1" parent="1">
          <mxGeometry width="50" height="50" relative="1" as="geometry">
            <mxPoint x="200" y="410" as="sourcePoint" />
            <mxPoint x="360" y="410" as="targetPoint" />
          </mxGeometry>
        </mxCell>
        <mxCell id="RIe04A_sjF8tFngzXczi-29" value="" style="endArrow=none;html=1;strokeColor=#66B2FF;" edge="1" parent="1">
          <mxGeometry width="50" height="50" relative="1" as="geometry">
            <mxPoint x="360" y="360" as="sourcePoint" />
            <mxPoint x="1320" y="360" as="targetPoint" />
          </mxGeometry>
        </mxCell>
        <mxCell id="RIe04A_sjF8tFngzXczi-30" value="&lt;div&gt;&lt;span style=&quot;font-weight: bold ; font-size: 11px&quot;&gt;P1 面客&lt;/span&gt;&lt;/div&gt;" style="text;html=1;strokeColor=none;fillColor=none;align=center;verticalAlign=middle;whiteSpace=wrap;rounded=0;" vertex="1" parent="1">
          <mxGeometry x="31" y="-40" width="60" height="20" as="geometry" />
        </mxCell>
        <mxCell id="RIe04A_sjF8tFngzXczi-31" value="&lt;div&gt;&lt;span style=&quot;font-weight: bold ; font-size: 11px&quot;&gt;P3 服务交互方&lt;/span&gt;&lt;/div&gt;" style="text;html=1;strokeColor=none;fillColor=none;align=center;verticalAlign=middle;whiteSpace=wrap;rounded=0;" vertex="1" parent="1">
          <mxGeometry x="35" y="360" width="90" height="20" as="geometry" />
        </mxCell>
        <mxCell id="RIe04A_sjF8tFngzXczi-32" value="&lt;div&gt;&lt;span style=&quot;font-weight: bold&quot;&gt;&lt;font style=&quot;font-size: 11px&quot;&gt;P2 内部用户&lt;/font&gt;&lt;/span&gt;&lt;/div&gt;" style="text;html=1;strokeColor=none;fillColor=none;align=center;verticalAlign=middle;whiteSpace=wrap;rounded=0;strokeWidth=2;" vertex="1" parent="1">
          <mxGeometry x="15" y="200" width="110" height="20" as="geometry" />
        </mxCell>
        <mxCell id="RIe04A_sjF8tFngzXczi-33" value="&lt;div&gt;&lt;span style=&quot;font-weight: bold ; font-size: 11px&quot;&gt;P4 数据提供方&lt;/span&gt;&lt;/div&gt;" style="text;whiteSpace=wrap;html=1;" vertex="1" parent="1">
          <mxGeometry x="40" y="480" width="85" height="20" as="geometry" />
        </mxCell>
        <mxCell id="RIe04A_sjF8tFngzXczi-34" value="&lt;div&gt;&lt;span style=&quot;font-weight: bold ; font-size: 11px&quot;&gt;P3 服务交互方&lt;/span&gt;&lt;/div&gt;" style="text;html=1;strokeColor=none;fillColor=none;align=center;verticalAlign=middle;whiteSpace=wrap;rounded=0;" vertex="1" parent="1">
          <mxGeometry x="195" y="-41" width="90" height="20" as="geometry" />
        </mxCell>
        <mxCell id="RIe04A_sjF8tFngzXczi-35" value="&lt;div&gt;&lt;span style=&quot;font-weight: bold ; font-size: 11px&quot;&gt;P6 数据集成&lt;/span&gt;&lt;/div&gt;" style="text;html=1;strokeColor=none;fillColor=none;align=center;verticalAlign=middle;whiteSpace=wrap;rounded=0;" vertex="1" parent="1">
          <mxGeometry x="190" y="410" width="90" height="20" as="geometry" />
        </mxCell>
        <mxCell id="RIe04A_sjF8tFngzXczi-36" value="&lt;div&gt;&lt;span style=&quot;font-weight: bold ; font-size: 11px&quot;&gt;P7 业务能力&lt;/span&gt;&lt;/div&gt;" style="text;html=1;strokeColor=none;fillColor=none;align=center;verticalAlign=middle;whiteSpace=wrap;rounded=0;" vertex="1" parent="1">
          <mxGeometry x="350" y="-40" width="90" height="20" as="geometry" />
        </mxCell>
        <mxCell id="RIe04A_sjF8tFngzXczi-37" value="&lt;div&gt;&lt;span style=&quot;font-weight: bold ; font-size: 11px&quot;&gt;P8 数据能力&lt;/span&gt;&lt;/div&gt;" style="text;html=1;strokeColor=none;fillColor=none;align=center;verticalAlign=middle;whiteSpace=wrap;rounded=0;" vertex="1" parent="1">
          <mxGeometry x="350" y="360" width="90" height="20" as="geometry" />
        </mxCell>
        <mxCell id="RIe04A_sjF8tFngzXczi-38" value="&lt;div&gt;&lt;span style=&quot;font-weight: bold ; font-size: 11px&quot;&gt;P9 运维&lt;/span&gt;&lt;/div&gt;" style="text;html=1;strokeColor=none;fillColor=none;align=center;verticalAlign=middle;whiteSpace=wrap;rounded=0;" vertex="1" parent="1">
          <mxGeometry x="1300" y="-40" width="90" height="20" as="geometry" />
        </mxCell>
        <mxCell id="RIe04A_sjF8tFngzXczi-39" value="中登文件" style="rounded=1;whiteSpace=wrap;html=1;shadow=0;labelBackgroundColor=none;strokeWidth=1;fontFamily=Verdana;fontSize=8;align=center;fillColor=#FFB366;strokeColor=none;" vertex="1" parent="1">
          <mxGeometry x="40" y="510" width="90" height="20" as="geometry" />
        </mxCell>
        <mxCell id="RIe04A_sjF8tFngzXczi-40" value="证金文件" style="rounded=1;whiteSpace=wrap;html=1;shadow=0;labelBackgroundColor=none;strokeWidth=1;fontFamily=Verdana;fontSize=8;align=center;fillColor=#FFB366;strokeColor=none;" vertex="1" parent="1">
          <mxGeometry x="40" y="540" width="90" height="20" as="geometry" />
        </mxCell>
        <mxCell id="RIe04A_sjF8tFngzXczi-41" value="管理人文件" style="rounded=1;whiteSpace=wrap;html=1;shadow=0;labelBackgroundColor=none;strokeWidth=1;fontFamily=Verdana;fontSize=8;align=center;fillColor=#FFB366;strokeColor=none;" vertex="1" parent="1">
          <mxGeometry x="40" y="570" width="90" height="20" as="geometry" />
        </mxCell>
        <mxCell id="RIe04A_sjF8tFngzXczi-42" value="客户文件（渣打）" style="rounded=1;whiteSpace=wrap;html=1;shadow=0;labelBackgroundColor=none;strokeWidth=1;fontFamily=Verdana;fontSize=8;align=center;fillColor=#FFB366;strokeColor=none;" vertex="1" parent="1">
          <mxGeometry x="40" y="600" width="90" height="20" as="geometry" />
        </mxCell>
        <mxCell id="RIe04A_sjF8tFngzXczi-43" value="&lt;div&gt;&lt;font style=&quot;font-size: 12px&quot; color=&quot;#001933&quot;&gt;数据服务（YSSTECH标准层）&lt;/font&gt;&lt;/div&gt;" style="rounded=1;whiteSpace=wrap;html=1;strokeWidth=2;strokeColor=none;fillColor=#66B2FF;" vertex="1" parent="1">
          <mxGeometry x="370" y="390" width="790" height="30" as="geometry" />
        </mxCell>
        <mxCell id="RIe04A_sjF8tFngzXczi-44" style="edgeStyle=orthogonalEdgeStyle;rounded=0;orthogonalLoop=1;jettySize=auto;html=1;exitX=0.5;exitY=1;exitDx=0;exitDy=0;strokeColor=#66B2FF;" edge="1" parent="1" source="RIe04A_sjF8tFngzXczi-43" target="RIe04A_sjF8tFngzXczi-43">
          <mxGeometry relative="1" as="geometry" />
        </mxCell>
        <mxCell id="RIe04A_sjF8tFngzXczi-45" value="&lt;div&gt;&lt;font color=&quot;#001933&quot; style=&quot;font-size: 12px&quot;&gt;数据事件&lt;/font&gt;&lt;/div&gt;" style="rounded=1;whiteSpace=wrap;html=1;strokeWidth=2;fillColor=#66B2FF;strokeColor=none;" vertex="1" parent="1">
          <mxGeometry x="1170" y="390" width="131" height="30" as="geometry" />
        </mxCell>
        <mxCell id="RIe04A_sjF8tFngzXczi-46" value="&lt;b&gt;&lt;font style=&quot;font-size: 10px&quot;&gt;数据加工&lt;/font&gt;&lt;/b&gt;" style="text;html=1;strokeColor=none;fillColor=none;align=center;verticalAlign=middle;whiteSpace=wrap;rounded=0;" vertex="1" parent="1">
          <mxGeometry x="380" y="440" width="50" height="20" as="geometry" />
        </mxCell>
        <mxCell id="RIe04A_sjF8tFngzXczi-47" style="edgeStyle=orthogonalEdgeStyle;rounded=0;orthogonalLoop=1;jettySize=auto;html=1;exitX=0.5;exitY=0;exitDx=0;exitDy=0;dashed=1;endArrow=classic;endFill=1;strokeColor=#333333;strokeWidth=2;" edge="1" parent="1" source="RIe04A_sjF8tFngzXczi-48">
          <mxGeometry relative="1" as="geometry">
            <mxPoint x="530" y="420" as="targetPoint" />
          </mxGeometry>
        </mxCell>
        <mxCell id="RIe04A_sjF8tFngzXczi-48" value="&lt;div&gt;&lt;font style=&quot;font-size: 12px&quot;&gt;标准化加工&lt;/font&gt;&lt;/div&gt;" style="rounded=1;whiteSpace=wrap;html=1;strokeWidth=2;fillColor=#66B2FF;strokeColor=none;" vertex="1" parent="1">
          <mxGeometry x="450" y="470" width="120" height="30" as="geometry" />
        </mxCell>
        <mxCell id="RIe04A_sjF8tFngzXczi-49" value="" style="endArrow=classic;html=1;strokeColor=#66B2FF;strokeWidth=3;" edge="1" parent="1">
          <mxGeometry width="50" height="50" relative="1" as="geometry">
            <mxPoint x="725" y="390" as="sourcePoint" />
            <mxPoint x="725" y="360" as="targetPoint" />
          </mxGeometry>
        </mxCell>
        <mxCell id="RIe04A_sjF8tFngzXczi-50" value="" style="endArrow=classic;html=1;strokeColor=#66B2FF;strokeWidth=3;" edge="1" parent="1">
          <mxGeometry width="50" height="50" relative="1" as="geometry">
            <mxPoint x="765" y="390" as="sourcePoint" />
            <mxPoint x="765" y="360" as="targetPoint" />
          </mxGeometry>
        </mxCell>
        <mxCell id="RIe04A_sjF8tFngzXczi-51" value="" style="endArrow=classic;html=1;strokeColor=#66B2FF;strokeWidth=3;" edge="1" parent="1">
          <mxGeometry width="50" height="50" relative="1" as="geometry">
            <mxPoint x="805" y="390" as="sourcePoint" />
            <mxPoint x="805" y="360" as="targetPoint" />
          </mxGeometry>
        </mxCell>
        <mxCell id="RIe04A_sjF8tFngzXczi-52" value="" style="endArrow=none;html=1;dashed=1;strokeColor=#333333;strokeWidth=2;endFill=0;" edge="1" parent="1">
          <mxGeometry relative="1" as="geometry">
            <mxPoint x="130" y="580" as="sourcePoint" />
            <mxPoint x="190" y="580" as="targetPoint" />
          </mxGeometry>
        </mxCell>
        <mxCell id="RIe04A_sjF8tFngzXczi-53" value="导入" style="edgeLabel;resizable=0;html=1;align=center;verticalAlign=middle;" connectable="0" vertex="1" parent="RIe04A_sjF8tFngzXczi-52">
          <mxGeometry relative="1" as="geometry" />
        </mxCell>
        <mxCell id="RIe04A_sjF8tFngzXczi-54" value="" style="endArrow=none;html=1;dashed=1;strokeColor=#333333;strokeWidth=2;endFill=0;" edge="1" parent="1">
          <mxGeometry relative="1" as="geometry">
            <mxPoint x="130" y="549.5" as="sourcePoint" />
            <mxPoint x="190" y="549.5" as="targetPoint" />
          </mxGeometry>
        </mxCell>
        <mxCell id="RIe04A_sjF8tFngzXczi-55" value="读取" style="edgeLabel;resizable=0;html=1;align=center;verticalAlign=middle;" connectable="0" vertex="1" parent="RIe04A_sjF8tFngzXczi-54">
          <mxGeometry relative="1" as="geometry" />
        </mxCell>
        <mxCell id="RIe04A_sjF8tFngzXczi-56" value="" style="endArrow=none;html=1;dashed=1;strokeColor=#333333;strokeWidth=2;endFill=0;" edge="1" parent="1">
          <mxGeometry relative="1" as="geometry">
            <mxPoint x="130" y="519.5" as="sourcePoint" />
            <mxPoint x="190" y="519.5" as="targetPoint" />
          </mxGeometry>
        </mxCell>
        <mxCell id="RIe04A_sjF8tFngzXczi-57" value="读取" style="edgeLabel;resizable=0;html=1;align=center;verticalAlign=middle;" connectable="0" vertex="1" parent="RIe04A_sjF8tFngzXczi-56">
          <mxGeometry relative="1" as="geometry" />
        </mxCell>
        <mxCell id="RIe04A_sjF8tFngzXczi-58" value="" style="endArrow=none;html=1;dashed=1;strokeColor=#333333;strokeWidth=2;endFill=0;" edge="1" parent="1">
          <mxGeometry relative="1" as="geometry">
            <mxPoint x="130" y="609.5" as="sourcePoint" />
            <mxPoint x="190" y="609.5" as="targetPoint" />
          </mxGeometry>
        </mxCell>
        <mxCell id="RIe04A_sjF8tFngzXczi-59" value="读取" style="edgeLabel;resizable=0;html=1;align=center;verticalAlign=middle;" connectable="0" vertex="1" parent="RIe04A_sjF8tFngzXczi-58">
          <mxGeometry relative="1" as="geometry" />
        </mxCell>
        <mxCell id="RIe04A_sjF8tFngzXczi-60" style="edgeStyle=orthogonalEdgeStyle;rounded=0;orthogonalLoop=1;jettySize=auto;html=1;exitX=1;exitY=0.5;exitDx=0;exitDy=0;entryX=0;entryY=0.5;entryDx=0;entryDy=0;endArrow=classic;endFill=1;strokeColor=#333333;strokeWidth=1;" edge="1" parent="1" source="RIe04A_sjF8tFngzXczi-61" target="RIe04A_sjF8tFngzXczi-64">
          <mxGeometry relative="1" as="geometry" />
        </mxCell>
        <mxCell id="RIe04A_sjF8tFngzXczi-61" value="交易量信息" style="rounded=1;whiteSpace=wrap;html=1;shadow=0;labelBackgroundColor=none;strokeWidth=1;fontFamily=Verdana;fontSize=8;align=center;fillColor=#d5e8d4;strokeColor=#82b366;" vertex="1" parent="1">
          <mxGeometry x="424" y="94" width="70" height="20" as="geometry" />
        </mxCell>
        <mxCell id="RIe04A_sjF8tFngzXczi-62" style="edgeStyle=orthogonalEdgeStyle;rounded=0;orthogonalLoop=1;jettySize=auto;html=1;exitX=0.5;exitY=1;exitDx=0;exitDy=0;endArrow=classic;endFill=1;strokeColor=#333333;strokeWidth=1;" edge="1" parent="1" source="RIe04A_sjF8tFngzXczi-63" target="RIe04A_sjF8tFngzXczi-61">
          <mxGeometry relative="1" as="geometry" />
        </mxCell>
        <mxCell id="RIe04A_sjF8tFngzXczi-63" value="&lt;span style=&quot;font-family: &amp;#34;verdana&amp;#34; ; font-size: 8px&quot;&gt;场内数据处理-交易量&lt;/span&gt;" style="rounded=1;whiteSpace=wrap;html=1;fillColor=#d5e8d4;strokeColor=#82b366;" vertex="1" parent="1">
          <mxGeometry x="419" y="54" width="80" height="20" as="geometry" />
        </mxCell>
        <mxCell id="RIe04A_sjF8tFngzXczi-64" value="&lt;span style=&quot;font-family: &amp;#34;verdana&amp;#34; ; font-size: 8px&quot;&gt;两金调整及结息&lt;/span&gt;" style="rounded=1;whiteSpace=wrap;html=1;fillColor=#d5e8d4;strokeColor=#82b366;" vertex="1" parent="1">
          <mxGeometry x="519" y="94" width="70" height="20" as="geometry" />
        </mxCell>
        <mxCell id="RIe04A_sjF8tFngzXczi-65" value="股息红利税申报" style="rounded=1;whiteSpace=wrap;html=1;shadow=0;labelBackgroundColor=none;strokeWidth=1;fontFamily=Verdana;fontSize=8;align=center;fillColor=#d5e8d4;strokeColor=#82b366;" vertex="1" parent="1">
          <mxGeometry x="519" y="54" width="70" height="20" as="geometry" />
        </mxCell>
        <mxCell id="RIe04A_sjF8tFngzXczi-66" value="&lt;span style=&quot;font-family: &amp;#34;verdana&amp;#34; ; font-size: 8px&quot;&gt;场内数据处理-流水&lt;/span&gt;" style="rounded=1;whiteSpace=wrap;html=1;fillColor=#d5e8d4;strokeColor=#82b366;" vertex="1" parent="1">
          <mxGeometry x="466.5" y="171" width="80" height="20" as="geometry" />
        </mxCell>
        <mxCell id="RIe04A_sjF8tFngzXczi-67" value="资金流水（明细和汇总）" style="rounded=1;whiteSpace=wrap;html=1;shadow=0;labelBackgroundColor=none;strokeWidth=1;fontFamily=Verdana;fontSize=8;align=center;fillColor=#d5e8d4;strokeColor=#82b366;" vertex="1" parent="1">
          <mxGeometry x="649" y="31" width="90" height="20" as="geometry" />
        </mxCell>
        <mxCell id="RIe04A_sjF8tFngzXczi-68" value="T+0资金流水管理" style="rounded=1;whiteSpace=wrap;html=1;shadow=0;labelBackgroundColor=none;strokeWidth=1;fontFamily=Verdana;fontSize=8;align=center;fillColor=#d5e8d4;strokeColor=#82b366;" vertex="1" parent="1">
          <mxGeometry x="647" y="76.13" width="90" height="17.5" as="geometry" />
        </mxCell>
        <mxCell id="RIe04A_sjF8tFngzXczi-69" value="券商清算资金流水管理" style="rounded=1;whiteSpace=wrap;html=1;shadow=0;labelBackgroundColor=none;strokeWidth=1;fontFamily=Verdana;fontSize=8;align=center;fillColor=#d5e8d4;strokeColor=#82b366;" vertex="1" parent="1">
          <mxGeometry x="648.75" y="153.25" width="86.5" height="17.5" as="geometry" />
        </mxCell>
        <mxCell id="RIe04A_sjF8tFngzXczi-70" value="港股通提前应付流水" style="rounded=1;whiteSpace=wrap;html=1;shadow=0;labelBackgroundColor=none;strokeWidth=1;fontFamily=Verdana;fontSize=8;align=center;strokeColor=#82b366;fillColor=#d5e8d4;" vertex="1" parent="1">
          <mxGeometry x="650.75" y="186" width="86.5" height="17.5" as="geometry" />
        </mxCell>
        <mxCell id="RIe04A_sjF8tFngzXczi-71" value="QFII产品流入流出资金规模明细" style="rounded=1;whiteSpace=wrap;html=1;shadow=0;labelBackgroundColor=none;strokeWidth=1;fontFamily=Verdana;fontSize=8;align=center;fillColor=#d5e8d4;strokeColor=#82b366;" vertex="1" parent="1">
          <mxGeometry x="650.5" y="112.25" width="86.5" height="17.5" as="geometry" />
        </mxCell>
        <mxCell id="RIe04A_sjF8tFngzXczi-72" style="edgeStyle=orthogonalEdgeStyle;rounded=0;orthogonalLoop=1;jettySize=auto;html=1;exitX=0.5;exitY=1;exitDx=0;exitDy=0;entryX=0.5;entryY=0;entryDx=0;entryDy=0;endArrow=classic;endFill=1;strokeColor=#333333;strokeWidth=1;" edge="1" parent="1" source="RIe04A_sjF8tFngzXczi-73" target="RIe04A_sjF8tFngzXczi-76">
          <mxGeometry relative="1" as="geometry" />
        </mxCell>
        <mxCell id="RIe04A_sjF8tFngzXczi-73" value="流水核对" style="rounded=1;whiteSpace=wrap;html=1;shadow=0;labelBackgroundColor=none;strokeWidth=1;fontFamily=Verdana;fontSize=8;align=center;fillColor=#d5e8d4;strokeColor=#82b366;" vertex="1" parent="1">
          <mxGeometry x="1109" y="53" width="70" height="20" as="geometry" />
        </mxCell>
        <mxCell id="RIe04A_sjF8tFngzXczi-74" style="edgeStyle=orthogonalEdgeStyle;rounded=0;orthogonalLoop=1;jettySize=auto;html=1;exitX=1;exitY=0.5;exitDx=0;exitDy=0;entryX=0;entryY=0.5;entryDx=0;entryDy=0;endArrow=classic;endFill=1;strokeColor=#333333;strokeWidth=1;" edge="1" parent="1" source="RIe04A_sjF8tFngzXczi-75" target="RIe04A_sjF8tFngzXczi-10">
          <mxGeometry relative="1" as="geometry" />
        </mxCell>
        <mxCell id="RIe04A_sjF8tFngzXczi-75" value="划款指令数据" style="rounded=1;whiteSpace=wrap;html=1;shadow=0;labelBackgroundColor=none;strokeWidth=1;fontFamily=Verdana;fontSize=8;align=center;" vertex="1" parent="1">
          <mxGeometry x="970" y="43.5" width="90" height="30" as="geometry" />
        </mxCell>
        <mxCell id="RIe04A_sjF8tFngzXczi-76" value="指令核对" style="rounded=1;whiteSpace=wrap;html=1;shadow=0;labelBackgroundColor=none;strokeWidth=1;fontFamily=Verdana;fontSize=8;align=center;fillColor=#d5e8d4;strokeColor=#82b366;" vertex="1" parent="1">
          <mxGeometry x="1109" y="92.25" width="70" height="20" as="geometry" />
        </mxCell>
        <mxCell id="RIe04A_sjF8tFngzXczi-77" style="edgeStyle=orthogonalEdgeStyle;rounded=0;orthogonalLoop=1;jettySize=auto;html=1;exitX=0.5;exitY=1;exitDx=0;exitDy=0;entryX=0.5;entryY=0;entryDx=0;entryDy=0;endArrow=classic;endFill=1;strokeColor=#333333;strokeWidth=1;" edge="1" parent="1" source="RIe04A_sjF8tFngzXczi-78" target="RIe04A_sjF8tFngzXczi-79">
          <mxGeometry relative="1" as="geometry" />
        </mxCell>
        <mxCell id="RIe04A_sjF8tFngzXczi-78" value="指令执行" style="rounded=1;whiteSpace=wrap;html=1;shadow=0;labelBackgroundColor=none;strokeWidth=1;fontFamily=Verdana;fontSize=8;align=center;strokeColor=#82b366;fillColor=#d5e8d4;" vertex="1" parent="1">
          <mxGeometry x="1109" y="141" width="70" height="20" as="geometry" />
        </mxCell>
        <mxCell id="RIe04A_sjF8tFngzXczi-79" value="清算账务锁定" style="rounded=1;whiteSpace=wrap;html=1;shadow=0;labelBackgroundColor=none;strokeWidth=1;fontFamily=Verdana;fontSize=8;align=center;strokeColor=#82b366;fillColor=#d5e8d4;" vertex="1" parent="1">
          <mxGeometry x="1109" y="183.5" width="70" height="20" as="geometry" />
        </mxCell>
        <mxCell id="RIe04A_sjF8tFngzXczi-80" style="edgeStyle=orthogonalEdgeStyle;rounded=0;orthogonalLoop=1;jettySize=auto;html=1;exitX=0.5;exitY=1;exitDx=0;exitDy=0;entryX=1;entryY=0.75;entryDx=0;entryDy=0;dashed=1;endArrow=classic;endFill=1;strokeColor=#333333;strokeWidth=2;" edge="1" parent="1" source="RIe04A_sjF8tFngzXczi-81" target="RIe04A_sjF8tFngzXczi-69">
          <mxGeometry relative="1" as="geometry" />
        </mxCell>
        <mxCell id="RIe04A_sjF8tFngzXczi-81" value="估值核算" style="rounded=1;whiteSpace=wrap;html=1;strokeColor=#6c8ebf;strokeWidth=1;fillColor=#66B2FF;" vertex="1" parent="1">
          <mxGeometry x="1210" y="-6" width="90" height="40" as="geometry" />
        </mxCell>
        <mxCell id="RIe04A_sjF8tFngzXczi-82" value="&lt;font style=&quot;font-size: 8px&quot;&gt;&lt;b&gt;数据初次加工&lt;/b&gt;&lt;/font&gt;" style="text;html=1;strokeColor=none;fillColor=none;align=center;verticalAlign=middle;whiteSpace=wrap;rounded=0;shadow=0;" vertex="1" parent="1">
          <mxGeometry x="414" y="25.25" width="55" height="20" as="geometry" />
        </mxCell>
        <mxCell id="RIe04A_sjF8tFngzXczi-83" value="&lt;font style=&quot;font-size: 8px&quot;&gt;&lt;b&gt;数据二次加工&lt;/b&gt;&lt;/font&gt;" style="text;html=1;strokeColor=none;fillColor=none;align=center;verticalAlign=middle;whiteSpace=wrap;rounded=0;" vertex="1" parent="1">
          <mxGeometry x="414" y="138.5" width="55" height="20" as="geometry" />
        </mxCell>
        <mxCell id="RIe04A_sjF8tFngzXczi-84" style="edgeStyle=orthogonalEdgeStyle;rounded=0;orthogonalLoop=1;jettySize=auto;html=1;exitX=1;exitY=0.5;exitDx=0;exitDy=0;entryX=0;entryY=0.5;entryDx=0;entryDy=0;endArrow=classic;endFill=1;strokeColor=#333333;strokeWidth=1;" edge="1" parent="1" source="RIe04A_sjF8tFngzXczi-85" target="RIe04A_sjF8tFngzXczi-78">
          <mxGeometry relative="1" as="geometry" />
        </mxCell>
        <mxCell id="RIe04A_sjF8tFngzXczi-85" value="划款指令数据" style="rounded=1;whiteSpace=wrap;html=1;shadow=0;labelBackgroundColor=none;strokeWidth=1;fontFamily=Verdana;fontSize=8;align=center;" vertex="1" parent="1">
          <mxGeometry x="972" y="118.25" width="90" height="30" as="geometry" />
        </mxCell>
        <mxCell id="RIe04A_sjF8tFngzXczi-86" value="&lt;span style=&quot;font-family: &amp;#34;verdana&amp;#34; ; font-size: 8px&quot;&gt;场内数据处理-指令&lt;/span&gt;" style="rounded=1;whiteSpace=wrap;html=1;" vertex="1" parent="1">
          <mxGeometry x="771.5" y="47.25" width="80" height="20" as="geometry" />
        </mxCell>
        <mxCell id="RIe04A_sjF8tFngzXczi-87" value="" style="rounded=0;whiteSpace=wrap;html=1;strokeWidth=1;strokeColor=none;" vertex="1" parent="1">
          <mxGeometry x="764.5" y="28" width="140" height="60" as="geometry" />
        </mxCell>
        <mxCell id="RIe04A_sjF8tFngzXczi-88" value="&lt;span style=&quot;font-family: &amp;#34;verdana&amp;#34; ; font-size: 8px&quot;&gt;场内数据处理-指令&lt;/span&gt;" style="rounded=1;whiteSpace=wrap;html=1;fillColor=#d5e8d4;strokeColor=#82b366;" vertex="1" parent="1">
          <mxGeometry x="801" y="53.5" width="80" height="20" as="geometry" />
        </mxCell>
        <mxCell id="RIe04A_sjF8tFngzXczi-89" value="&lt;font style=&quot;font-size: 8px&quot;&gt;&lt;b&gt;数据三次加工&lt;/b&gt;&lt;/font&gt;" style="text;html=1;strokeColor=none;fillColor=none;align=center;verticalAlign=middle;whiteSpace=wrap;rounded=0;" vertex="1" parent="1">
          <mxGeometry x="764.5" y="23" width="55" height="20" as="geometry" />
        </mxCell>
        <mxCell id="RIe04A_sjF8tFngzXczi-90" value="&lt;span style=&quot;font-family: &amp;#34;verdana&amp;#34; ; font-size: 8px&quot;&gt;场内数据处理-指令&lt;/span&gt;" style="rounded=1;whiteSpace=wrap;html=1;" vertex="1" parent="1">
          <mxGeometry x="771.5" y="124.25" width="80" height="20" as="geometry" />
        </mxCell>
        <mxCell id="RIe04A_sjF8tFngzXczi-91" value="" style="rounded=0;whiteSpace=wrap;html=1;strokeWidth=1;strokeColor=none;" vertex="1" parent="1">
          <mxGeometry x="764.5" y="105" width="140" height="60" as="geometry" />
        </mxCell>
        <mxCell id="RIe04A_sjF8tFngzXczi-92" value="&lt;span style=&quot;font-family: &amp;#34;verdana&amp;#34; ; font-size: 8px&quot;&gt;场内数据处理-指令&lt;/span&gt;" style="rounded=1;whiteSpace=wrap;html=1;fillColor=#d5e8d4;strokeColor=#82b366;" vertex="1" parent="1">
          <mxGeometry x="801" y="130.5" width="80" height="20" as="geometry" />
        </mxCell>
        <mxCell id="RIe04A_sjF8tFngzXczi-93" value="&lt;font style=&quot;font-size: 8px&quot;&gt;&lt;b&gt;数据三次加工&lt;/b&gt;&lt;/font&gt;" style="text;html=1;strokeColor=none;fillColor=none;align=center;verticalAlign=middle;whiteSpace=wrap;rounded=0;" vertex="1" parent="1">
          <mxGeometry x="764.5" y="100" width="55" height="20" as="geometry" />
        </mxCell>
        <mxCell id="RIe04A_sjF8tFngzXczi-94" value="&lt;font style=&quot;font-size: 8px&quot;&gt;&lt;b&gt;数据核对&lt;/b&gt;&lt;/font&gt;" style="text;html=1;strokeColor=none;fillColor=none;align=center;verticalAlign=middle;whiteSpace=wrap;rounded=0;" vertex="1" parent="1">
          <mxGeometry x="1099" y="28" width="40" height="20" as="geometry" />
        </mxCell>
        <mxCell id="RIe04A_sjF8tFngzXczi-95" value="" style="endArrow=classic;html=1;strokeColor=#333333;strokeWidth=1;" edge="1" parent="1">
          <mxGeometry relative="1" as="geometry">
            <mxPoint x="904.5" y="58" as="sourcePoint" />
            <mxPoint x="969" y="58" as="targetPoint" />
          </mxGeometry>
        </mxCell>
        <mxCell id="RIe04A_sjF8tFngzXczi-96" value="指令模板" style="edgeLabel;resizable=0;html=1;align=center;verticalAlign=middle;" connectable="0" vertex="1" parent="RIe04A_sjF8tFngzXczi-95">
          <mxGeometry relative="1" as="geometry">
            <mxPoint as="offset" />
          </mxGeometry>
        </mxCell>
        <mxCell id="RIe04A_sjF8tFngzXczi-97" value="" style="endArrow=classic;html=1;strokeColor=#333333;strokeWidth=1;" edge="1" parent="1">
          <mxGeometry relative="1" as="geometry">
            <mxPoint x="903" y="134" as="sourcePoint" />
            <mxPoint x="973" y="134" as="targetPoint" />
          </mxGeometry>
        </mxCell>
        <mxCell id="RIe04A_sjF8tFngzXczi-98" value="指令模板" style="edgeLabel;resizable=0;html=1;align=center;verticalAlign=middle;" connectable="0" vertex="1" parent="RIe04A_sjF8tFngzXczi-97">
          <mxGeometry relative="1" as="geometry" />
        </mxCell>
        <mxCell id="RIe04A_sjF8tFngzXczi-99" value="" style="endArrow=classic;html=1;strokeColor=#333333;strokeWidth=1;" edge="1" parent="1">
          <mxGeometry relative="1" as="geometry">
            <mxPoint x="738" y="197" as="sourcePoint" />
            <mxPoint x="1009" y="146" as="targetPoint" />
            <Array as="points">
              <mxPoint x="771" y="197" />
              <mxPoint x="841" y="197" />
              <mxPoint x="901" y="197" />
              <mxPoint x="971" y="197" />
              <mxPoint x="1009" y="197" />
            </Array>
          </mxGeometry>
        </mxCell>
        <mxCell id="RIe04A_sjF8tFngzXczi-100" value="指令模板" style="edgeLabel;resizable=0;html=1;align=center;verticalAlign=middle;" connectable="0" vertex="1" parent="RIe04A_sjF8tFngzXczi-99">
          <mxGeometry relative="1" as="geometry" />
        </mxCell>
        <mxCell id="RIe04A_sjF8tFngzXczi-101" value="&lt;b style=&quot;font-size: 10px&quot;&gt;核&lt;br&gt;心&lt;br&gt;域&lt;/b&gt;" style="text;html=1;strokeColor=none;fillColor=none;align=center;verticalAlign=middle;whiteSpace=wrap;rounded=0;shadow=0;" vertex="1" parent="1">
          <mxGeometry x="359" y="105" width="40" height="20" as="geometry" />
        </mxCell>
        <mxCell id="RIe04A_sjF8tFngzXczi-102" value="支付网关" style="rounded=1;whiteSpace=wrap;html=1;shadow=0;labelBackgroundColor=none;strokeWidth=1;fontFamily=Verdana;fontSize=8;align=center;fillColor=#d5e8d4;strokeColor=#82b366;" vertex="1" parent="1">
          <mxGeometry x="242" y="154" width="70" height="20" as="geometry" />
        </mxCell>
        <mxCell id="RIe04A_sjF8tFngzXczi-103" value="&lt;font style=&quot;font-size: 9px&quot;&gt;&lt;b&gt;交易网关&lt;/b&gt;&lt;/font&gt;" style="text;html=1;strokeColor=none;fillColor=none;align=center;verticalAlign=middle;whiteSpace=wrap;rounded=0;shadow=0;" vertex="1" parent="1">
          <mxGeometry x="250" y="124" width="50" height="20" as="geometry" />
        </mxCell>
        <mxCell id="RIe04A_sjF8tFngzXczi-104" value="&lt;span style=&quot;font-family: &amp;#34;verdana&amp;#34; ; font-size: 8px&quot;&gt;行方核心系统&lt;/span&gt;" style="rounded=1;whiteSpace=wrap;html=1;fillColor=#d5e8d4;strokeColor=#82b366;" vertex="1" parent="1">
          <mxGeometry x="70" y="417" width="70" height="20" as="geometry" />
        </mxCell>
        <mxCell id="RIe04A_sjF8tFngzXczi-105" value="&lt;font style=&quot;font-size: 10px&quot;&gt;&lt;b&gt;行内&lt;/b&gt;&lt;/font&gt;" style="text;html=1;strokeColor=none;fillColor=none;align=center;verticalAlign=middle;whiteSpace=wrap;rounded=0;shadow=0;" vertex="1" parent="1">
          <mxGeometry x="80" y="390" width="40" height="20" as="geometry" />
        </mxCell>
        <mxCell id="RIe04A_sjF8tFngzXczi-106" value="&lt;span style=&quot;font-family: &amp;#34;verdana&amp;#34; ; font-size: 8px&quot;&gt;清算基础信息&lt;/span&gt;" style="rounded=1;whiteSpace=wrap;html=1;fillColor=#d5e8d4;strokeColor=#82b366;" vertex="1" parent="1">
          <mxGeometry x="540" y="253" width="80" height="20" as="geometry" />
        </mxCell>
        <mxCell id="RIe04A_sjF8tFngzXczi-107" value="&lt;span style=&quot;font-family: &amp;#34;verdana&amp;#34; ; font-size: 8px&quot;&gt;公共基础信息&lt;/span&gt;" style="rounded=1;whiteSpace=wrap;html=1;fillColor=#d5e8d4;strokeColor=#82b366;" vertex="1" parent="1">
          <mxGeometry x="424" y="253" width="80" height="20" as="geometry" />
        </mxCell>
        <mxCell id="RIe04A_sjF8tFngzXczi-108" value="&lt;b style=&quot;font-size: 10px&quot;&gt;公&lt;br&gt;共&lt;br&gt;域&lt;/b&gt;" style="text;html=1;strokeColor=none;fillColor=none;align=center;verticalAlign=middle;whiteSpace=wrap;rounded=0;shadow=0;" vertex="1" parent="1">
          <mxGeometry x="359" y="250" width="40" height="20" as="geometry" />
        </mxCell>
        <mxCell id="RIe04A_sjF8tFngzXczi-109" value="&lt;font style=&quot;font-size: 10px&quot;&gt;&lt;b&gt;资金清算&lt;/b&gt;&lt;/font&gt;" style="text;html=1;strokeColor=none;fillColor=none;align=center;verticalAlign=middle;whiteSpace=wrap;rounded=0;shadow=0;" vertex="1" parent="1">
          <mxGeometry x="730" y="-6" width="71" height="20" as="geometry" />
        </mxCell>
        <mxCell id="RIe04A_sjF8tFngzXczi-110" value="&lt;span style=&quot;font-family: &amp;#34;verdana&amp;#34; ; font-size: 8px&quot;&gt;数据读取&lt;/span&gt;" style="rounded=1;whiteSpace=wrap;html=1;fillColor=#d5e8d4;strokeColor=#82b366;" vertex="1" parent="1">
          <mxGeometry x="424" y="311" width="80" height="20" as="geometry" />
        </mxCell>
        <mxCell id="RIe04A_sjF8tFngzXczi-111" value="&lt;span style=&quot;font-family: &amp;#34;verdana&amp;#34; ; font-size: 8px&quot;&gt;报表中心&lt;/span&gt;" style="rounded=1;whiteSpace=wrap;html=1;fillColor=#d5e8d4;strokeColor=#82b366;" vertex="1" parent="1">
          <mxGeometry x="540" y="311" width="80" height="20" as="geometry" />
        </mxCell>
        <mxCell id="RIe04A_sjF8tFngzXczi-112" value="&lt;span style=&quot;font-family: &amp;#34;verdana&amp;#34; ; font-size: 8px&quot;&gt;监控中心&lt;/span&gt;" style="rounded=1;whiteSpace=wrap;html=1;fillColor=#d5e8d4;strokeColor=#82b366;" vertex="1" parent="1">
          <mxGeometry x="640.75" y="311" width="80" height="20" as="geometry" />
        </mxCell>
        <mxCell id="RIe04A_sjF8tFngzXczi-113" value="&lt;span style=&quot;font-family: &amp;#34;verdana&amp;#34; ; font-size: 8px&quot;&gt;邮件发送&lt;/span&gt;" style="rounded=1;whiteSpace=wrap;html=1;fillColor=#d5e8d4;strokeColor=#82b366;" vertex="1" parent="1">
          <mxGeometry x="752" y="311" width="80" height="20" as="geometry" />
        </mxCell>
        <mxCell id="RIe04A_sjF8tFngzXczi-114" value="&lt;span style=&quot;font-family: &amp;#34;verdana&amp;#34; ; font-size: 8px&quot;&gt;电子印章中心&lt;/span&gt;" style="rounded=1;whiteSpace=wrap;html=1;fillColor=#d5e8d4;strokeColor=#82b366;" vertex="1" parent="1">
          <mxGeometry x="860" y="311" width="80" height="20" as="geometry" />
        </mxCell>
        <mxCell id="RIe04A_sjF8tFngzXczi-115" value="&lt;font style=&quot;font-size: 10px&quot;&gt;&lt;b&gt;通&lt;br&gt;用&lt;br&gt;能&lt;br&gt;力&lt;/b&gt;&lt;/font&gt;" style="text;html=1;strokeColor=none;fillColor=none;align=center;verticalAlign=middle;whiteSpace=wrap;rounded=0;shadow=0;" vertex="1" parent="1">
          <mxGeometry x="360" y="312" width="40" height="20" as="geometry" />
        </mxCell>
        <mxCell id="RIe04A_sjF8tFngzXczi-116" value="" style="rounded=1;whiteSpace=wrap;html=1;shadow=0;strokeWidth=1;fillColor=#FFB366;strokeColor=none;" vertex="1" parent="1">
          <mxGeometry x="1130" y="440" width="170" height="90" as="geometry" />
        </mxCell>
        <mxCell id="RIe04A_sjF8tFngzXczi-117" value="大屏" style="rounded=1;whiteSpace=wrap;html=1;shadow=0;strokeWidth=1;fillColor=#66B2FF;strokeColor=none;" vertex="1" parent="1">
          <mxGeometry x="1174" y="460" width="80" height="20" as="geometry" />
        </mxCell>
        <mxCell id="RIe04A_sjF8tFngzXczi-118" value="&lt;b&gt;&lt;font style=&quot;font-size: 10px&quot;&gt;渲染&lt;/font&gt;&lt;/b&gt;" style="text;html=1;strokeColor=none;fillColor=none;align=center;verticalAlign=middle;whiteSpace=wrap;rounded=0;shadow=0;" vertex="1" parent="1">
          <mxGeometry x="1134" y="440" width="40" height="20" as="geometry" />
        </mxCell>
        <mxCell id="RIe04A_sjF8tFngzXczi-119" value="报表" style="rounded=1;whiteSpace=wrap;html=1;shadow=0;strokeWidth=1;fillColor=#66B2FF;strokeColor=none;" vertex="1" parent="1">
          <mxGeometry x="1175" y="490" width="80" height="20" as="geometry" />
        </mxCell>
        <mxCell id="RIe04A_sjF8tFngzXczi-120" value="" style="endArrow=classic;html=1;strokeColor=#333333;strokeWidth=1;exitX=1;exitY=0.5;exitDx=0;exitDy=0;entryX=0;entryY=0.5;entryDx=0;entryDy=0;" edge="1" parent="1" source="RIe04A_sjF8tFngzXczi-67" target="RIe04A_sjF8tFngzXczi-87">
          <mxGeometry width="50" height="50" relative="1" as="geometry">
            <mxPoint x="740" y="100" as="sourcePoint" />
            <mxPoint x="790" y="50" as="targetPoint" />
            <Array as="points">
              <mxPoint x="750" y="58" />
            </Array>
          </mxGeometry>
        </mxCell>
      </root>
    </mxGraphModel>
  </diagram>
</mxfile>
